# xmcd
#
# Track frame offsets:
#	150
#	28780
#	63769
#	106200
#	139342
#	179430
#	215247
#
# Disc length: 3483 seconds
#
# Revision: 1
# Processed by: cddbd v1.5.2PL0 Copyright (c) Steve Scherf et al.
# Submitted via: audiograbber 1.83.01
#
DISCID=670d9907
DTITLE=Bill Bruford's | Earthworks - Video Anthology 1-The Soundtrack-Disc 2-20
DTITLE=19 Summerfold Remaster
DYEAR=2019
DGENRE=Jazz
TTITLE0=Footloose and Fancy Free (Live at Teatro Opera-Buenos Aires-Argentina /
TTITLE0=2002)
TTITLE1=Libreville (Live at Drums 'n' Percussion-Paderborn-Germany - 2005)
TTITLE2=Highland Games (Live at Drums 'n' Percussion-Paderborn-Germany - 2005)
TTITLE3=Youth (Live at Drums 'n' Percussion-Paderborn-Germany - 2005)
TTITLE4=Song (Live at Drums 'n' Percussion-Paderborn-Germany - 2005)
TTITLE5=White Knuckle Wedding (Live at Drums 'n' Percussion-Paderborn-Germany /
TTITLE5=2005)
TTITLE6=The Wooden Man Sings and the Stone Woman Dances (Live at Drums 'n' Perc
TTITLE6=ussion-Paderborn-Germany - 200
EXTD=
EXTT0=
EXTT1=
EXTT2=
EXTT3=
EXTT4=
EXTT5=
EXTT6=
PLAYORDER=
